<svg width="134" height="50" viewBox="0 0 134 50" fill="none" xmlns="http://www.w3.org/2000/svg">
<path d="M4.47318 25.3373L8.52804 1.90913L15.4149 1.92522C17.4423 1.92522 19.2123 2.46158 20.7248 3.5343C22.2374 4.59629 23.3101 6.04982 23.943 7.89489C24.4901 9.51469 24.6563 11.2632 24.4418 13.1405L24.3292 14.122C24.0395 16.2245 23.3423 18.1286 22.2374 19.8342C21.1325 21.5398 19.7111 22.8807 17.9733 23.8569C16.2355 24.8224 14.3583 25.3158 12.3416 25.3373H4.47318ZM13.2909 6.26973L10.7325 20.9928L12.3416 21.0089C14.2295 21.0089 15.7421 20.2794 16.8791 18.8205C18.027 17.3616 18.7081 15.1304 18.9227 12.1268L18.9549 11.5958C19.0299 9.87942 18.7618 8.57607 18.1503 7.68571C17.5389 6.79536 16.6217 6.32873 15.3988 6.28582L13.2909 6.26973Z" fill="#151515"/>
<path d="M31.1677 25.3373H25.6647L29.7357 1.90913H35.2226L31.1677 25.3373Z" fill="#151515"/>
<path d="M54.5315 22.457C53.6519 23.4868 52.37 24.286 50.6858 24.8545C49.0016 25.4124 47.1351 25.6752 45.0862 25.643C43.1232 25.6215 41.4658 25.1281 40.1142 24.1626C38.7626 23.1972 37.7971 21.8509 37.2179 20.1239C36.6386 18.3968 36.483 16.4498 36.7512 14.2829L36.8799 13.3175C37.3734 9.68096 38.6499 6.80072 40.7095 4.67674C42.7799 2.55276 45.3115 1.51759 48.3044 1.57123C50.9218 1.61413 52.9332 2.31676 54.3384 3.67911C55.7437 5.04146 56.5268 7.0099 56.6877 9.58442L51.4099 9.56833C51.3348 8.31325 51.0237 7.39608 50.4766 6.81681C49.9403 6.23754 49.1733 5.93182 48.1757 5.89964C46.6953 5.846 45.4724 6.43063 44.507 7.65353C43.5415 8.8657 42.8818 10.6035 42.5278 12.8669C42.2274 14.7978 42.1202 16.2996 42.206 17.3723C42.3669 19.9576 43.5308 21.2663 45.6977 21.2985C47.0064 21.3199 48.1542 21.0035 49.1411 20.3491L49.8652 16.6965H46.0517L46.7275 12.8187H56.044L54.5315 22.457Z" fill="#151515"/>
<path d="M62.9309 25.3373H57.4278L61.4988 1.90913H66.9857L62.9309 25.3373Z" fill="#151515"/>
<path d="M87.5658 6.26973H80.7433L77.4447 25.3373H71.9256L75.2403 6.26973H68.5305L69.3028 1.90913H88.3221L87.5658 6.26973Z" fill="#151515"/>
<path d="M98.5236 20.9606H91.0414L88.9657 25.3373H82.8995L95.3055 1.90913H100.487L104.815 25.3373H99.0868L98.5236 20.9606ZM93.101 16.6H97.9604L96.9306 8.52243L93.101 16.6Z" fill="#151515"/>
<path d="M112.973 20.9928H122.515L121.759 25.3373H106.714L110.769 1.90913H116.288L112.973 20.9928Z" fill="#151515"/>
<path fill-rule="evenodd" clip-rule="evenodd" d="M2.60898 26.9065L7.20758 0.336795L15.4148 0.355975C15.4155 0.355975 15.4162 0.355975 15.4168 0.355975C17.7355 0.356325 19.828 0.975406 21.6295 2.25208C23.4272 3.51521 24.6936 5.2469 25.4273 7.38571L25.4297 7.39273C26.0581 9.25332 26.2388 11.2364 26.0008 13.3186L25.8861 14.3185L25.8837 14.3361C25.5641 16.6561 24.7899 18.7801 23.5544 20.6874C22.3139 22.6023 20.706 24.1217 18.7418 25.2251L18.7354 25.2287C16.766 26.3228 14.632 26.8822 12.3582 26.9064L12.3499 26.9065H2.60898ZM20.7248 3.53428C19.2123 2.46156 17.4423 1.92521 15.4148 1.92521L8.52801 1.90912L4.47314 25.3372H12.3415C14.3582 25.3158 16.2355 24.8223 17.9733 23.8569C19.7111 22.8807 21.1324 21.5398 22.2373 19.8342C23.3422 18.1286 24.0395 16.2245 24.3291 14.122L24.4418 13.1405C24.6563 11.2632 24.49 9.51468 23.9429 7.89488C23.31 6.0498 22.2373 4.59627 20.7248 3.53428ZM15.6458 17.8502C16.5122 16.749 17.1513 14.8865 17.3568 12.0233L17.3876 11.5143C17.454 9.95952 17.1903 9.05977 16.8567 8.57405C16.5697 8.1561 16.1521 7.88663 15.3634 7.85481L14.6092 7.84905L12.5961 19.4339C13.8847 19.3748 14.8595 18.859 15.6414 17.8558L15.6458 17.8502ZM13.2909 6.26971L15.3988 6.2858C16.6217 6.32871 17.5388 6.79534 18.1503 7.6857C18.7617 8.57605 19.0299 9.8794 18.9548 11.5957L18.9226 12.1267C18.7081 15.1303 18.0269 17.3616 16.8791 18.8205C15.742 20.2794 14.2295 21.0088 12.3415 21.0088L10.7324 20.9927L13.2909 6.26971ZM32.4887 26.9065H23.7992L28.4155 0.339884H37.0867L32.4887 26.9065ZM29.7356 1.90912H35.2226L31.1677 25.3372H25.6647L29.7356 1.90912ZM56.0129 23.1387L55.7247 23.4762C54.6121 24.7787 53.0585 25.7098 51.1877 26.3413L51.1792 26.3442C49.3055 26.9648 47.2621 27.2462 45.0657 27.2121C42.8427 27.1872 40.8591 26.6231 39.2021 25.4396C37.5552 24.2633 36.4038 22.6315 35.73 20.6229C35.0628 18.6334 34.9025 16.4443 35.1938 14.0902L35.1947 14.0828L35.3249 13.1065C35.8524 9.21899 37.239 6.00156 39.583 3.58431L39.5858 3.58139C41.9612 1.14448 44.9105 -0.0587872 48.3312 0.00220745C51.2094 0.0495874 53.6538 0.829775 55.4307 2.55242C57.196 4.26385 58.0764 6.64886 58.2538 9.48652L58.3426 10.9067L60.1787 0.339884H90.1869L88.8863 7.83894H82.0644L78.7658 26.9065H70.06L73.3747 7.83894H67.552L64.2518 26.9065H55.5624L58.2988 11.1586L49.9314 11.133L49.8434 9.66203C49.7783 8.57402 49.5197 8.08902 49.3357 7.89427L49.3304 7.88863L49.3252 7.88294C49.1445 7.68787 48.8202 7.49046 48.125 7.46804L48.1188 7.46784C47.168 7.43338 46.4129 7.77174 45.7386 8.62588L45.7344 8.63116C45.0008 9.5522 44.409 10.9947 44.0783 13.1081C43.7842 14.999 43.699 16.3579 43.7702 17.2472L43.7713 17.261L43.7721 17.2748C43.8408 18.3784 44.1119 18.9573 44.3721 19.25C44.5946 19.5001 44.9652 19.7182 45.7209 19.7294L45.7234 19.7294C46.4999 19.7422 47.1636 19.6054 47.7416 19.3386L47.9543 18.2657H44.1853L45.408 11.2494H57.8787L56.0129 23.1387ZM49.8651 16.6965L49.1411 20.3491C48.1542 21.0035 47.0064 21.3199 45.6976 21.2985C43.5308 21.2663 42.3669 19.9576 42.206 17.3723C42.1201 16.2996 42.2274 14.7978 42.5278 12.8669C42.8818 10.6035 43.5415 8.86568 44.5069 7.65351C45.4724 6.43062 46.6953 5.84599 48.1756 5.89962C49.1732 5.9318 49.9402 6.23753 50.4766 6.81679C51.0237 7.39606 51.3348 8.31323 51.4099 9.56831L56.6876 9.5844C56.6532 9.03337 56.5902 8.5101 56.4988 8.01459C56.163 6.19502 55.4429 4.74986 54.3384 3.6791C52.9331 2.31675 50.9218 1.61412 48.3043 1.57121C45.3115 1.51757 42.7799 2.55275 40.7095 4.67672C38.6499 6.8007 37.3734 9.68095 36.8799 13.3175L36.7512 14.2829C36.483 16.4498 36.6386 18.3968 37.2178 20.1238C37.7971 21.8509 38.7625 23.1972 40.1142 24.1626C41.4658 25.1281 43.1231 25.6215 45.0862 25.643C47.1351 25.6752 49.0016 25.4123 50.6858 24.8545C52.3699 24.286 53.6518 23.4868 54.5315 22.457L56.044 12.8186H46.7275L46.0516 16.6965H49.8651ZM75.2403 6.26971L71.9256 25.3372H77.4447L80.7433 6.26971H87.5658L88.322 1.90912H69.3028L68.5304 6.26971H75.2403ZM62.9308 25.3372H57.4278L61.4988 1.90912H66.9857L62.9308 25.3372ZM99.0868 25.3372L98.5236 20.9606H91.0414L88.9657 25.3372H82.8995L95.3054 1.90912H100.487L104.815 25.3372H99.0868ZM92.0339 22.5298L89.9582 26.9065H80.2928L94.3607 0.339884H101.793L105.745 21.7332L109.448 0.339884H118.153L114.838 19.4235H124.381L123.078 26.9065H97.7065L97.1433 22.5298H92.0339ZM112.973 20.9927L116.288 1.90912H110.769L106.714 25.3372H121.759L122.515 20.9927H112.973ZM97.9604 16.6L96.9306 8.52241L93.101 16.6H97.9604ZM95.5816 15.0307H96.1784L96.0519 14.0388L95.5816 15.0307Z" fill="#F9F9F9"/>
<path d="M18.2307 43.7144H10.7485L8.67284 48.0911H2.60663L15.0126 24.663H20.1938L24.5222 48.0911H18.7939L18.2307 43.7144ZM12.8082 39.3538H17.6676L16.6378 31.2763L12.8082 39.3538Z" fill="#151515"/>
<path d="M26.4209 48.0911L30.4758 24.663L37.9258 24.6791C40.8651 24.6898 43.0588 25.2476 44.5069 26.3525C45.9551 27.4574 46.6148 29.0075 46.4861 31.0027C46.3252 33.47 44.9736 35.2185 42.4312 36.2483C43.343 36.5701 44.051 37.1548 44.5552 38.0022C45.0701 38.8389 45.29 39.8473 45.2149 41.0273C45.0648 43.2907 44.169 45.0339 42.5278 46.2568C40.8973 47.4797 38.6606 48.0911 35.8179 48.0911H26.4209ZM33.6618 38.1309L32.6802 43.7466L35.9788 43.7627C37.0087 43.7627 37.8668 43.5106 38.5534 43.0064C39.2399 42.4915 39.6475 41.8104 39.7763 40.9629C40.0766 39.1715 39.3901 38.2329 37.7166 38.147L33.6618 38.1309ZM34.2893 34.4301L36.8799 34.4462C39.2721 34.3925 40.613 33.4754 40.9026 31.6946C41.1601 29.9354 40.2483 29.0504 38.1672 29.0397L35.2387 29.0236L34.2893 34.4301Z" fill="#151515"/>
<path d="M60.9678 43.7144H53.4856L51.4099 48.0911H45.3437L57.7496 24.663H62.9309L67.2593 48.0911H61.531L60.9678 43.7144ZM55.5452 39.3538H60.4046L59.3748 31.2763L55.5452 39.3538Z" fill="#151515"/>
<path d="M88.4347 40.1101C88.2952 41.7514 87.7535 43.2103 86.8095 44.4868C85.8763 45.7633 84.6426 46.7449 83.1087 47.4314C81.5854 48.1179 79.9334 48.4451 78.1527 48.4129C75.7069 48.3593 73.7814 47.5709 72.3761 46.0476C70.9709 44.5243 70.2039 42.4594 70.0751 39.8527C69.9786 38.1149 70.1663 36.2215 70.6383 34.1726C71.121 32.1237 71.8988 30.343 72.9715 28.8305C74.0549 27.3072 75.3261 26.1701 76.785 25.4192C78.2546 24.6576 79.8583 24.2929 81.5961 24.3251C84.1492 24.368 86.1659 25.135 87.6463 26.6261C89.1373 28.1171 89.9472 30.1714 90.076 32.7888L84.589 32.7727C84.6105 31.346 84.353 30.3269 83.8167 29.7155C83.2803 29.104 82.4328 28.7769 81.2743 28.7339C78.378 28.6374 76.6134 30.8901 75.9805 35.4921C75.6908 37.5731 75.546 39.0588 75.546 39.9492C75.4924 42.5881 76.4685 43.9451 78.4745 44.0202C79.7725 44.0631 80.8077 43.7466 81.58 43.0708C82.3524 42.3843 82.8458 41.4188 83.0604 40.1745L88.4347 40.1101Z" fill="#151515"/>
<path d="M111.927 24.663L109.32 39.9492C108.945 42.5988 107.851 44.6852 106.038 46.2085C104.236 47.7318 101.962 48.4719 99.2155 48.429C97.5099 48.3968 96.0295 48.0321 94.7745 47.3349C93.5194 46.6269 92.5915 45.6346 91.9908 44.3581C91.4008 43.0708 91.2023 41.6065 91.3954 39.9653L94.0021 24.663H99.5373L96.9467 39.9814C96.8823 40.5177 96.8716 41.0273 96.9145 41.51C96.9682 42.3038 97.2149 42.9206 97.6547 43.3604C98.1052 43.8003 98.7381 44.0362 99.5534 44.0684C101.913 44.1435 103.335 42.7758 103.817 39.9653L106.424 24.663H111.927Z" fill="#151515"/>
<path d="M124.221 41.7514C124.457 40.5392 123.802 39.6006 122.257 38.9355L119.619 37.8413C115.918 36.1786 114.158 33.9152 114.341 31.051C114.416 29.7423 114.866 28.5784 115.692 27.5593C116.518 26.5295 117.661 25.7303 119.12 25.1618C120.579 24.5933 122.172 24.3197 123.899 24.3412C126.216 24.3841 128.077 25.0599 129.482 26.3686C130.898 27.6773 131.595 29.4312 131.574 31.6303H126.103C126.135 30.7292 125.942 30.0105 125.524 29.4741C125.116 28.927 124.44 28.6428 123.496 28.6213C122.574 28.5999 121.759 28.8144 121.051 29.2649C120.343 29.7155 119.924 30.3216 119.796 31.0832C119.592 32.1559 120.386 33.0355 122.177 33.7221C123.979 34.4086 125.288 34.9986 126.103 35.4921C128.667 37.026 129.868 39.0964 129.707 41.7031C129.622 43.0547 129.187 44.2401 128.404 45.2591C127.621 46.2782 126.532 47.0667 125.138 47.6245C123.754 48.1823 122.198 48.4505 120.471 48.429C119.206 48.4076 118.031 48.2091 116.948 47.8337C115.864 47.4582 114.936 46.9111 114.164 46.1924C112.598 44.7442 111.847 42.8402 111.911 40.4802L117.43 40.4963C117.366 41.6977 117.597 42.6095 118.122 43.2317C118.648 43.8432 119.533 44.1489 120.777 44.1489C121.7 44.1489 122.467 43.9397 123.078 43.5213C123.7 43.0923 124.081 42.5023 124.221 41.7514Z" fill="#151515"/>
<path fill-rule="evenodd" clip-rule="evenodd" d="M18.7939 48.0911L18.2307 43.7144H10.7485L8.67284 48.0911H2.60662L15.0126 24.663H20.1938L24.5222 48.0911H18.7939ZM11.7411 45.2837L9.66537 49.6603H0L14.0679 23.0937H21.4997L25.4522 44.487L29.1553 23.0909L37.9316 23.1098C41.0189 23.1211 43.617 23.6997 45.4588 25.1049C47.3703 26.5634 48.2107 28.6449 48.0521 31.1038L48.052 31.1048C47.9537 32.6118 47.4824 33.974 46.5932 35.1243C46.2279 35.5969 45.8039 36.0185 45.3283 36.3923C45.5368 36.6375 45.7269 36.9036 45.8979 37.19C46.6103 38.3529 46.8721 39.6946 46.781 41.1269L46.7807 41.1312C46.7545 41.5271 46.7081 41.9126 46.6415 42.2869L56.8049 23.0937H64.2367L69.145 49.6603H60.1507L59.5875 45.2837H54.4781L52.4024 49.6603H42.737L44.1959 46.9054C43.9681 47.1185 43.7252 47.3214 43.467 47.5139C41.4763 49.0059 38.868 49.6603 35.8179 49.6603H17.4137L16.8505 45.2837H11.7411ZM42.5278 46.2568C44.169 45.0339 45.0648 43.2907 45.2149 41.0273C45.29 39.8473 45.0701 38.8389 44.5552 38.0022C44.3897 37.724 44.2023 37.4742 43.9928 37.2526C43.5643 36.7993 43.0437 36.4645 42.4312 36.2483C43.0698 35.9897 43.6332 35.6857 44.1215 35.3363C45.5774 34.2948 46.3656 32.8503 46.4861 31.0027C46.6148 29.0075 45.9551 27.4574 44.5069 26.3525C43.0588 25.2476 40.8651 24.6898 37.9258 24.6791L30.4758 24.663L26.4209 48.0911H35.8179C38.6606 48.0911 40.8973 47.4797 42.5278 46.2568ZM53.4856 43.7144H60.9678L61.531 48.0911H67.2593L62.9309 24.663H57.7496L45.3437 48.0911H51.4099L53.4856 43.7144ZM17.6676 39.3538L16.6378 31.2763L12.8082 39.3538H17.6676ZM15.2888 37.7846H15.8856L15.7591 36.7926L15.2888 37.7846ZM38.2266 40.7153L38.2286 40.7034C38.3315 40.0901 38.2373 39.8759 38.221 39.8442C38.1846 39.8163 38.0463 39.7393 37.6697 39.7161L34.9796 39.7054L34.546 42.1864L35.9788 42.1935C35.9801 42.1935 35.9813 42.1935 35.9825 42.1935C36.7432 42.1929 37.2543 42.0112 37.6182 41.7463C37.9719 41.4789 38.1584 41.1648 38.2248 40.7272L38.2266 40.7153ZM38.5534 43.0064C37.8668 43.5106 37.0087 43.7627 35.9788 43.7627L32.6802 43.7466L33.6618 38.1309L37.7166 38.147C39.3901 38.2328 40.0766 39.1715 39.7763 40.9629C39.6475 41.8103 39.2399 42.4915 38.5534 43.0064ZM38.2317 39.8544C38.2314 39.8547 38.2282 39.8522 38.2232 39.846C38.2296 39.8511 38.2321 39.8542 38.2317 39.8544ZM38.1672 29.0397L35.2387 29.0236L34.2893 34.4301L36.8799 34.4461C39.2721 34.3925 40.613 33.4753 40.9026 31.6946C41.1601 29.9354 40.2483 29.0504 38.1672 29.0397ZM39.3517 31.4549C39.3928 31.1656 39.3734 30.9976 39.3532 30.9161C39.3377 30.8535 39.3229 30.8409 39.3195 30.838C39.3192 30.8378 39.3196 30.8381 39.3195 30.838C39.2922 30.8115 39.0392 30.6134 38.1591 30.6089L36.5551 30.6L36.1561 32.8724L36.8662 32.8768C37.8806 32.8514 38.4691 32.6449 38.7938 32.4228C39.0666 32.2362 39.2663 31.9653 39.3517 31.4549ZM60.4046 39.3538L59.3748 31.2763L55.5452 39.3538H60.4046ZM58.0258 37.7846H58.6226L58.4961 36.7926L58.0258 37.7846ZM90.0495 38.5214L81.7358 38.621L81.514 39.9078C81.3466 40.8785 80.9916 41.4922 80.5422 41.8937C80.1434 42.2406 79.5341 42.4845 78.5298 42.4519C77.9047 42.4278 77.6589 42.2342 77.5118 42.0297C77.3075 41.7457 77.0913 41.144 77.1149 39.9811L77.1152 39.9651V39.9492C77.1152 39.1781 77.2453 37.7877 77.5347 35.7084L77.5351 35.7058C77.8348 33.5261 78.3784 32.1301 79.0139 31.3187C79.5823 30.5932 80.2654 30.2711 81.2191 30.3022C82.1308 30.3364 82.4887 30.5812 82.637 30.7503C82.783 30.9167 83.0396 31.4441 83.02 32.7491L82.9961 34.3373L90.7584 34.36L90.0495 38.5214ZM91.3927 30.6363L92.6776 23.0937H101.394L98.5006 40.204C98.4516 40.6303 98.4462 41.0182 98.4776 41.371L98.4791 41.3876L98.4802 41.4042C98.5148 41.9166 98.6548 42.138 98.7576 42.244C98.8589 42.3397 99.0805 42.4783 99.6094 42.5002C100.452 42.5258 100.955 42.3011 101.301 41.9682C101.685 41.5993 102.062 40.9165 102.271 39.6996L105.1 23.0937H113.787L111.09 38.9085L118.252 38.9294C116.592 38.0961 115.238 37.0868 114.284 35.8597C113.171 34.4267 112.66 32.7687 112.774 30.957C112.869 29.3226 113.44 27.8471 114.471 26.5744C115.498 25.2946 116.884 24.3489 118.55 23.6997C120.215 23.0508 122.01 22.7483 123.918 22.772L123.928 22.7722C126.546 22.8207 128.805 23.595 130.549 25.2182C132.337 26.8711 133.168 29.0734 133.143 31.6456L133.128 33.1995H125.045C125.791 33.5322 126.417 33.8478 126.911 34.1469C128.364 35.0168 129.521 36.0928 130.284 37.4077C131.055 38.7349 131.371 40.2168 131.274 41.7998L131.274 41.8025C131.169 43.4477 130.632 44.9353 129.648 46.2153C128.667 47.4921 127.334 48.4357 125.724 49.0802C124.12 49.7267 122.354 50.0217 120.452 49.9981L120.445 49.998C119.03 49.974 117.689 49.7515 116.434 49.3164C115.163 48.876 114.042 48.222 113.097 47.3429C111.587 45.9458 110.71 44.2026 110.434 42.1938C109.808 44.2726 108.689 46.0295 107.051 47.407C104.913 49.2145 102.251 50.0459 99.191 49.998L99.1859 49.998C97.2718 49.9618 95.5304 49.55 94.0124 48.7066L94.0034 48.7016C92.4714 47.8373 91.3133 46.604 90.5709 45.0262L90.5675 45.0191L90.5642 45.0119C90.092 43.9816 89.8336 42.8793 89.7703 41.7198C89.465 43.0606 88.9002 44.2979 88.0738 45.4164C86.97 46.9248 85.5163 48.0727 83.7517 48.8628C82.0037 49.6503 80.1206 50.018 78.1244 49.9819L78.1183 49.9818C75.3296 49.9206 72.9689 49.0044 71.2227 47.1116C69.5099 45.2549 68.6507 42.8087 68.508 39.9344C68.4025 38.0238 68.6111 35.9823 69.1091 33.8203L69.1109 33.8127C69.6338 31.5934 70.487 29.621 71.6915 27.9227L71.6927 27.9209C72.9007 26.2226 74.3545 24.9057 76.0649 24.025C77.7771 23.138 79.6397 22.7195 81.6238 22.7561C84.4908 22.8045 86.9301 23.6786 88.7579 25.5185C90.1327 26.8942 90.991 28.6255 91.3927 30.6363ZM87.6463 26.626C86.1659 25.135 84.1492 24.368 81.5961 24.3251C79.8583 24.2929 78.2546 24.6576 76.785 25.4192C75.3261 26.1701 74.0549 27.3072 72.9715 28.8305C71.8988 30.343 71.121 32.1237 70.6383 34.1726C70.1663 36.2215 69.9786 38.1148 70.0752 39.8526C70.2039 42.4593 70.9709 44.5243 72.3761 46.0476C73.7814 47.5708 75.7069 48.3593 78.1527 48.4129C79.9334 48.4451 81.5854 48.1179 83.1087 47.4314C84.6426 46.7448 85.8763 45.7633 86.8095 44.4868C87.4405 43.6335 87.8917 42.6989 88.1633 41.6827C88.298 41.1785 88.3885 40.6543 88.4347 40.1101L83.0604 40.1745C82.8458 41.4188 82.3524 42.3842 81.58 43.0708C80.8077 43.7466 79.7725 44.0631 78.4745 44.0201C76.4685 43.9451 75.4924 42.5881 75.546 39.9492C75.546 39.0588 75.6908 37.5731 75.9805 35.492C76.6134 30.8901 78.378 28.6374 81.2743 28.7339C82.4328 28.7768 83.2803 29.104 83.8167 29.7155C84.3197 30.2889 84.5774 31.2208 84.5898 32.5113C84.5906 32.5968 84.5903 32.684 84.589 32.7727L90.076 32.7888C90.049 32.2409 89.9922 31.7176 89.9056 31.2191C89.5783 29.336 88.8252 27.805 87.6463 26.626ZM106.038 46.2085C107.851 44.6852 108.945 42.5988 109.32 39.9492L111.927 24.663H106.424L103.817 39.9653C103.335 42.7758 101.913 44.1435 99.5534 44.0684C98.7381 44.0362 98.1052 43.8002 97.6547 43.3604C97.2149 42.9206 96.9682 42.3038 96.9145 41.51C96.8716 41.0273 96.8823 40.5177 96.9467 39.9814L99.5373 24.663H94.0021L91.3954 39.9653C91.2023 41.6065 91.4008 43.0708 91.9908 44.358C92.5915 45.6346 93.5194 46.6268 94.7745 47.3348C96.0295 48.0321 97.5099 48.3968 99.2155 48.429C101.962 48.4719 104.236 47.7317 106.038 46.2085ZM114.164 46.1924C114.936 46.9111 115.864 47.4582 116.948 47.8337C118.031 48.2091 119.206 48.4076 120.471 48.429C122.198 48.4505 123.754 48.1823 125.138 47.6245C126.532 47.0667 127.621 46.2782 128.404 45.2591C129.187 44.24 129.622 43.0547 129.707 41.7031C129.868 39.0964 128.667 37.026 126.103 35.492C125.288 34.9986 123.979 34.4086 122.177 33.7221C120.386 33.0355 119.592 32.1559 119.796 31.0832C119.924 30.3215 120.343 29.7155 121.051 29.2649C121.759 28.8144 122.574 28.5998 123.496 28.6213C124.44 28.6427 125.116 28.927 125.524 29.4741C125.882 29.9338 126.076 30.5276 126.103 31.2553C126.108 31.3765 126.108 31.5015 126.103 31.6303H131.574C131.575 31.5646 131.575 31.4994 131.574 31.4345C131.569 30.955 131.53 30.4972 131.455 30.061C131.201 28.5802 130.543 27.3494 129.482 26.3686C128.077 25.0599 126.216 24.3841 123.899 24.3412C122.172 24.3197 120.579 24.5932 119.12 25.1618C117.661 25.7303 116.518 26.5295 115.692 27.5593C114.866 28.5784 114.416 29.7423 114.341 31.051C114.158 33.9152 115.918 36.1786 119.619 37.8413L122.257 38.9355C123.802 39.6005 124.457 40.5392 124.221 41.7513C124.081 42.5022 123.7 43.0922 123.078 43.5213C122.467 43.9397 121.7 44.1489 120.777 44.1489C119.533 44.1489 118.648 43.8431 118.122 43.2317C117.705 42.7383 117.474 42.0626 117.428 41.2048C117.416 40.981 117.417 40.7449 117.43 40.4963L111.911 40.4802C111.907 40.6469 111.906 40.8113 111.91 40.9734C111.918 41.344 111.947 41.7028 111.998 42.0497C112.239 43.6994 112.961 45.0803 114.164 46.1924ZM119.316 42.2132C119.418 42.3279 119.755 42.5796 120.777 42.5796C121.459 42.5796 121.897 42.4275 122.189 42.2281C122.464 42.0377 122.613 41.8115 122.678 41.4648L122.679 41.4581L122.68 41.4515C122.724 41.2256 122.683 41.1271 122.619 41.0357C122.521 40.8944 122.262 40.6471 121.646 40.3807C121.643 40.3794 121.64 40.3781 121.637 40.3768L119.065 39.3106L118.997 40.5802C118.945 41.5607 119.149 42.0118 119.316 42.2132ZM122.738 32.2564C121.946 31.9531 121.562 31.6725 121.403 31.4961C121.357 31.4455 121.34 31.4138 121.334 31.4015C121.334 31.3966 121.335 31.3884 121.337 31.3761L121.34 31.3604L121.343 31.3447C121.391 31.0617 121.524 30.824 121.893 30.5888C122.313 30.3217 122.816 30.1751 123.46 30.1901L123.461 30.1901C124.112 30.2049 124.244 30.3828 124.265 30.4109L124.266 30.4117L124.276 30.4256L124.287 30.4392C124.413 30.6016 124.558 30.9207 124.535 31.5743L124.486 32.9563" fill="#F9F9F9"/>
</svg>
